<svg width="24" height="9" viewBox="0 0 24 9" fill="none" xmlns="http://www.w3.org/2000/svg">
<path d="M5.23585 8.24744H6.81056V0.271362H5.23585V3.46472H1.60304V0.271362H0.0283298V8.24744H1.60304V4.79041H5.23585V8.24744ZM12.2688 1.45789C13.4333 1.45789 14.1951 2.27087 14.2317 3.52332H10.2034C10.2913 2.2782 11.1042 1.45789 12.2688 1.45789ZM14.2244 6.09412C13.9314 6.71667 13.2795 7.06091 12.3274 7.06091C11.0676 7.06091 10.2546 6.17468 10.2034 4.77576V4.68787H15.8357V4.13855C15.8357 1.63367 14.4954 0.117554 12.2761 0.117554C10.0276 0.117554 8.59937 1.73621 8.59937 4.28503C8.59937 6.83386 9.99829 8.40125 12.2834 8.40125C14.1072 8.40125 15.3962 7.51501 15.7405 6.09412H14.2244ZM23.0737 0.271362H16.4746V1.59705H18.9868V8.24744H20.5615V1.59705H23.0737V0.271362Z" fill="black"/>
</svg>
